{
  "accessors": [
    {
      "bufferView": 2,
      "componentType": 5126,
      "count": 65532,
      "max": [
        7.583134651184082,
        6.0153970718383789,
        28.695009231567383
      ],
      "min": [
        -5.700718879699707,
        -6.8808984756469727,
        4.5915894508361816
      ],
      "type": "VEC3"
    },
    {
      "bufferView": 2,
      "byteOffset": 786384,
      "componentType": 5126,
      "count": 65532,
      "max": [
        0.99999368190765381,
        0.99999886751174927,
        0.99999874830245972
      ],
      "min": [
        -0.99993360042572021,
        -0.99998313188552856,
        -0.99992066621780396
      ],
      "type": "VEC3"
    },
    {
      "bufferView": 3,
      "componentType": 5126,
      "count": 65532,
      "max": [
        0.99999994039535522,
        0.99855190515518188,
        0.9999159574508667,
        1
      ],
      "min": [
        -0.99999815225601196,
        -0.99842482805252075,
        -0.99991226196289062,
        -1
      ],
      "type": "VEC4"
    },
    {
      "bufferView": 1,
      "componentType": 5126,
      "count": 65532,
      "max": [
        0.99967700242996216,
        0.98706001043319702
      ],
      "min": [
        0.00024399999529123306,
        0.00025799998547881842
      ],
      "type": "VEC2"
    },
    {
      "bufferView": 0,
      "componentType": 5125,
      "count": 156648,
      "max": [
        65531
      ],
      "min": [
        0
      ],
      "type": "SCALAR"
    },
    {
      "bufferView": 2,
      "byteOffset": 1572768,
      "componentType": 5126,
      "count": 65532,
      "max": [
        7.7037215232849121,
        6.0153970718383789,
        15.482444763183594
      ],
      "min": [
        -5.4703550338745117,
        -6.9501705169677734,
        4.5245895385742188
      ],
      "type": "VEC3"
    },
    {
      "bufferView": 2,
      "byteOffset": 2359152,
      "componentType": 5126,
      "count": 65532,
      "max": [
        0.99994659423828125,
        0.99998944997787476,
        0.99999505281448364
      ],
      "min": [
        -0.9999503493309021,
        -0.99997109174728394,
        -0.99964141845703125
      ],
      "type": "VEC3"
    },
    {
      "bufferView": 3,
      "byteOffset": 1048512,
      "componentType": 5126,
      "count": 65532,
      "max": [
        0.99999994039535522,
        0.99725687503814697,
        0.9997362494468689,
        1
      ],
      "min": [
        -0.99999654293060303,
        -0.99596309661865234,
        -0.99996572732925415,
        -1
      ],
      "type": "VEC4"
    },
    {
      "bufferView": 1,
      "byteOffset": 524256,
      "componentType": 5126,
      "count": 65532,
      "max": [
        0.99974697828292847,
        0.99877899885177612
      ],
      "min": [
        0.00024399999529123306,
        0.00026500000967644155
      ],
      "type": "VEC2"
    },
    {
      "bufferView": 0,
      "byteOffset": 626592,
      "componentType": 5125,
      "count": 138477,
      "max": [
        65531
      ],
      "min": [
        0
      ],
      "type": "SCALAR"
    },
    {
      "bufferView": 2,
      "byteOffset": 3145536,
      "componentType": 5126,
      "count": 65534,
      "max": [
        6.4205155372619629,
        5.9175848960876465,
        28.695009231567383
      ],
      "min": [
        -3.0215218067169189,
        -6.4653172492980957,
        5.361668586730957
      ],
      "type": "VEC3"
    },
    {
      "bufferView": 2,
      "byteOffset": 3931944,
      "componentType": 5126,
      "count": 65534,
      "max": [
        0.99997431039810181,
        0.99999666213989258,
        0.99995851516723633
      ],
      "min": [
        -0.99993908405303955,
        -0.99999994039535522,
        -0.99994885921478271
      ],
      "type": "VEC3"
    },
    {
      "bufferView": 3,
      "byteOffset": 2097024,
      "componentType": 5126,
      "count": 65534,
      "max": [
        0.99999880790710449,
        0.99637562036514282,
        0.9999048113822937,
        1
      ],
      "min": [
        -0.99999833106994629,
        -0.99576640129089355,
        -0.999980628490448,
        -1
      ],
      "type": "VEC4"
    },
    {
      "bufferView": 1,
      "byteOffset": 1048512,
      "componentType": 5126,
      "count": 65534,
      "max": [
        0.99972498416900635,
        0.9899899959564209
      ],
      "min": [
        0.00024399999529123306,
        0.00024699998903088272
      ],
      "type": "VEC2"
    },
    {
      "bufferView": 0,
      "byteOffset": 1180500,
      "componentType": 5125,
      "count": 138120,
      "max": [
        65533
      ],
      "min": [
        0
      ],
      "type": "SCALAR"
    },
    {
      "bufferView": 2,
      "byteOffset": 4718352,
      "componentType": 5126,
      "count": 65534,
      "max": [
        5.735112190246582,
        4.5389723777770996,
        25.630178451538086
      ],
      "min": [
        -3.8871338367462158,
        -5.6172471046447754,
        12.887818336486816
      ],
      "type": "VEC3"
    },
    {
      "bufferView": 2,
      "byteOffset": 5504760,
      "componentType": 5126,
      "count": 65534,
      "max": [
        0.99993211030960083,
        0.99994868040084839,
        0.99997401237487793
      ],
      "min": [
        -0.99995750188827515,
        -0.99982213973999023,
        -0.99998801946640015
      ],
      "type": "VEC3"
    },
    {
      "bufferView": 3,
      "byteOffset": 3145568,
      "componentType": 5126,
      "count": 65534,
      "max": [
        0.99999970197677612,
        0.99559170007705688,
        0.99989539384841919,
        1
      ],
      "min": [
        -0.99999934434890747,
        -0.99574148654937744,
        -0.99998939037322998,
        -1
      ],
      "type": "VEC4"
    },
    {
      "bufferView": 1,
      "byteOffset": 1572784,
      "componentType": 5126,
      "count": 65534,
      "max": [
        0.9997439980506897,
        0.98706001043319702
      ],
      "min": [
        0.00024399999529123306,
        0.0002460000105202198
      ],
      "type": "VEC2"
    },
    {
      "bufferView": 0,
      "byteOffset": 1732980,
      "componentType": 5125,
      "count": 135231,
      "max": [
        65533
      ],
      "min": [
        0
      ],
      "type": "SCALAR"
    },
    {
      "bufferView": 2,
      "byteOffset": 6291168,
      "componentType": 5126,
      "count": 65532,
      "max": [
        6.002051830291748,
        4.4364967346191406,
        24.499286651611328
      ],
      "min": [
        -3.8189437389373779,
        -4.7928199768066406,
        12.637557983398438
      ],
      "type": "VEC3"
    },
    {
      "bufferView": 2,
      "byteOffset": 7077552,
      "componentType": 5126,
      "count": 65532,
      "max": [
        0.99983769655227661,
        0.99995326995849609,
        1
      ],
      "min": [
        -0.99997711181640625,
        -0.99998015165328979,
        -0.99999880790710449
      ],
      "type": "VEC3"
    },
    {
      "bufferView": 3,
      "byteOffset": 4194112,
      "componentType": 5126,
      "count": 65532,
      "max": [
        0.99999862909317017,
        0.99950051307678223,
        0.99999135732650757,
        -1
      ],
      "min": [
        -0.9999995231628418,
        -0.99517321586608887,
        -0.9998278021812439,
        -1
      ],
      "type": "VEC4"
    },
    {
      "bufferView": 1,
      "byteOffset": 2097056,
      "componentType": 5126,
      "count": 65532,
      "max": [
        0.99973797798156738,
        0.98901402950286865
      ],
      "min": [
        0.00024399999529123306,
        0.00024900000425986946
      ],
      "type": "VEC2"
    },
    {
      "bufferView": 0,
      "byteOffset": 2273904,
      "componentType": 5125,
      "count": 126804,
      "max": [
        65531
      ],
      "min": [
        0
      ],
      "type": "SCALAR"
    },
    {
      "bufferView": 2,
      "byteOffset": 7863936,
      "componentType": 5126,
      "count": 65533,
      "max": [
        5.5156450271606445,
        3.9926981925964355,
        25.888246536254883
      ],
      "min": [
        -3.4514908790588379,
        -5.4564828872680664,
        12.694130897521973
      ],
      "type": "VEC3"
    },
    {
      "bufferView": 2,
      "byteOffset": 8650332,
      "componentType": 5126,
      "count": 65533,
      "max": [
        0.99999362230300903,
        0.99989229440689087,
        0.99999988079071045
      ],
      "min": [
        -0.99996405839920044,
        -0.99998015165328979,
        -0.99987763166427612
      ],
      "type": "VEC3"
    },
    {
      "bufferView": 3,
      "byteOffset": 5242624,
      "componentType": 5126,
      "count": 65533,
      "max": [
        0.99999916553497314,
        0.99742883443832397,
        0.99995243549346924,
        1
      ],
      "min": [
        -0.99999779462814331,
        -0.99655085802078247,
        -0.99996954202651978,
        -1
      ],
      "type": "VEC4"
    },
    {
      "bufferView": 1,
      "byteOffset": 2621312,
      "componentType": 5126,
      "count": 65533,
      "max": [
        0.9997439980506897,
        0.98803699016571045
      ],
      "min": [
        0.00024399999529123306,
        0.00024399999529123306
      ],
      "type": "VEC2"
    },
    {
      "bufferView": 0,
      "byteOffset": 2781120,
      "componentType": 5125,
      "count": 120627,
      "max": [
        65532
      ],
      "min": [
        0
      ],
      "type": "SCALAR"
    },
    {
      "bufferView": 2,
      "byteOffset": 9436728,
      "componentType": 5126,
      "count": 42156,
      "max": [
        5.7528743743896484,
        6.119636058807373,
        22.505645751953125
      ],
      "min": [
        -4.315119743347168,
        -6.9501705169677734,
        5.8583154678344727
      ],
      "type": "VEC3"
    },
    {
      "bufferView": 2,
      "byteOffset": 9942600,
      "componentType": 5126,
      "count": 42156,
      "max": [
        0.99963706731796265,
        0.99998301267623901,
        0.99996697902679443
      ],
      "min": [
        -0.99996048212051392,
        -0.99993723630905151,
        -0.99980765581130981
      ],
      "type": "VEC3"
    },
    {
      "bufferView": 3,
      "byteOffset": 6291152,
      "componentType": 5126,
      "count": 42156,
      "max": [
        0.9999995231628418,
        0.99428683519363403,
        0.99998998641967773,
        -1
      ],
      "min": [
        -0.99999874830245972,
        -0.99995136260986328,
        -0.99998867511749268,
        -1
      ],
      "type": "VEC4"
    },
    {
      "bufferView": 1,
      "byteOffset": 3145576,
      "componentType": 5126,
      "count": 42156,
      "max": [
        0.99975502490997314,
        0.98901402950286865
      ],
      "min": [
        0.00024399999529123306,
        0.00024900000425986946
      ],
      "type": "VEC2"
    },
    {
      "bufferView": 0,
      "byteOffset": 3263628,
      "componentType": 5125,
      "count": 83616,
      "max": [
        42155
      ],
      "min": [
        0
      ],
      "type": "SCALAR"
    }
  ],
  "asset": {
    "extras": {
      "author": "whitewashstudio (https://sketchfab.com/whitewashstudio)",
      "license": "CC-BY-4.0 (http://creativecommons.org/licenses/by/4.0/)",
      "source": "https://sketchfab.com/3d-models/christmas-tree-037e1ac7f30543d1b0f2635b1d1e2e1a",
      "title": "Christmas Tree"
    },
    "generator": "Sketchfab-6.99.1",
    "version": "2.0"
  },
  "bufferViews": [
    {
      "buffer": 0,
      "byteLength": 3598092,
      "byteOffset": 0,
      "name": "floatBufferViews",
      "target": 34963
    },
    {
      "buffer": 0,
      "byteLength": 3482824,
      "byteOffset": 3598092,
      "byteStride": 8,
      "name": "floatBufferViews",
      "target": 34962
    },
    {
      "buffer": 0,
      "byteLength": 10448472,
      "byteOffset": 7080916,
      "byteStride": 12,
      "name": "floatBufferViews",
      "target": 34962
    },
    {
      "buffer": 0,
      "byteLength": 6965648,
      "byteOffset": 17529388,
      "byteStride": 16,
      "name": "floatBufferViews",
      "target": 34962
    }
  ],
  "buffers": [
    {
      "byteLength": 24495036,
      "uri": "scene.bin"
    }
  ],
  "images": [
    {
      "uri": "textures/model_Material_u1_v1_baseColor.jpeg"
    }
  ],
  "materials": [
    {
      "doubleSided": true,
      "emissiveFactor": [
        0,
        0,
        0
      ],
      "name": "model_Material_u1_v1",
      "pbrMetallicRoughness": {
        "baseColorFactor": [
          1,
          1,
          1,
          1
        ],
        "baseColorTexture": {
          "index": 0,
          "texCoord": 0
        },
        "metallicFactor": 0,
        "roughnessFactor": 1
      }
    }
  ],
  "meshes": [
    {
      "primitives": [
        {
          "attributes": {
            "NORMAL": 1,
            "POSITION": 0,
            "TANGENT": 2,
            "TEXCOORD_0": 3
          },
          "indices": 4,
          "material": 0,
          "mode": 4
        }
      ]
    },
    {
      "primitives": [
        {
          "attributes": {
            "NORMAL": 6,
            "POSITION": 5,
            "TANGENT": 7,
            "TEXCOORD_0": 8
          },
          "indices": 9,
          "material": 0,
          "mode": 4
        }
      ]
    },
    {
      "primitives": [
        {
          "attributes": {
            "NORMAL": 11,
            "POSITION": 10,
            "TANGENT": 12,
            "TEXCOORD_0": 13
          },
          "indices": 14,
          "material": 0,
          "mode": 4
        }
      ]
    },
    {
      "primitives": [
        {
          "attributes": {
            "NORMAL": 16,
            "POSITION": 15,
            "TANGENT": 17,
            "TEXCOORD_0": 18
          },
          "indices": 19,
          "material": 0,
          "mode": 4
        }
      ]
    },
    {
      "primitives": [
        {
          "attributes": {
            "NORMAL": 21,
            "POSITION": 20,
            "TANGENT": 22,
            "TEXCOORD_0": 23
          },
          "indices": 24,
          "material": 0,
          "mode": 4
        }
      ]
    },
    {
      "primitives": [
        {
          "attributes": {
            "NORMAL": 26,
            "POSITION": 25,
            "TANGENT": 27,
            "TEXCOORD_0": 28
          },
          "indices": 29,
          "material": 0,
          "mode": 4
        }
      ]
    },
    {
      "primitives": [
        {
          "attributes": {
            "NORMAL": 31,
            "POSITION": 30,
            "TANGENT": 32,
            "TEXCOORD_0": 33
          },
          "indices": 34,
          "material": 0,
          "mode": 4
        }
      ]
    }
  ],
  "nodes": [
    {
      "children": [
        1
      ],
      "name": "RootNode (gltf orientation matrix)",
      "rotation": [
        -0.70710678118654746,
        -0,
        -0,
        0.70710678118654757
      ]
    },
    {
      "children": [
        2
      ],
      "name": "RootNode (model correction matrix)"
    },
    {
      "children": [
        3,
        4,
        5,
        6,
        7,
        8,
        9
      ],
      "name": "model.obj.cleaner.materialmerger.gles"
    },
    {
      "mesh": 0,
      "name": ""
    },
    {
      "mesh": 1,
      "name": ""
    },
    {
      "mesh": 2,
      "name": ""
    },
    {
      "mesh": 3,
      "name": ""
    },
    {
      "mesh": 4,
      "name": ""
    },
    {
      "mesh": 5,
      "name": ""
    },
    {
      "mesh": 6,
      "name": ""
    }
  ],
  "samplers": [
    {
      "magFilter": 9729,
      "minFilter": 9987,
      "wrapS": 10497,
      "wrapT": 10497
    }
  ],
  "scene": 0,
  "scenes": [
    {
      "name": "OSG_Scene",
      "nodes": [
        0
      ]
    }
  ],
  "textures": [
    {
      "sampler": 0,
      "source": 0
    }
  ]
}

